#!OML:ASF F:\VICON\USERDATA\INSTALL\rory3\rory3.ASF
:FULLY-SPECIFIED
:DEGREES
2101
root 13.0677 17.8499 -3.10663 -0.881662 180.312 -363.204
lowerback 11.4093 1.48119 -3.44813
upperback 2.04488 1.33874 -0.13069
thorax -4.33639 0.620257 1.6127
lowerneck -13.5372 1.42729 -12.733
upperneck 41.9819 -2.19649 5.46677
head 18.0783 -4.07333 3.86706
rclavicle 3.03147e-015 -2.5842e-015
rhumerus -32.5582 -13.7385 -78.575
rradius 38.4177
rwrist 2.48587
rhand -16.9825 6.46428
rfingers 7.12502
rthumb 9.25225 -23.3127
lclavicle 3.03147e-015 -2.5842e-015
lhumerus -33.5595 5.23992 86.5993
lradius 34.1542
lwrist -5.54256
lhand -20.295 26.6859
lfingers 7.12502
lthumb 6.05502 56.5793
rfemur -25.6791 -4.91266 12.7365
rtibia 23.7021
rfoot -2.81861 3.36225
rtoes -28.4102
lfemur 4.93344 -7.894 -28.7949
ltibia 24.3456
lfoot -5.07233 -21.225
ltoes 8.63162
2102
root 13.0308 17.8557 -2.99893 -0.965925 179.777 -363.229
lowerback 11.4974 1.19057 -3.68461
upperback 2.05575 1.3357 -0.167826
thorax -4.36724 0.799998 1.69312
lowerneck -13.7915 1.47667 -12.9124
upperneck 42.293 -2.28042 5.72768
head 18.3508 -4.155 4.00939
rclavicle -2.60905e-015 2.38542e-015
rhumerus -32.738 -13.6893 -78.7079
rradius 38.4881
rwrist 2.49168
rhand -16.737 6.5792
rfingers 7.12502
rthumb 9.48908 -23.1872
lclavicle -2.60905e-015 2.38542e-015
lhumerus -33.344 4.87505 86.6575
lradius 34.465
lwrist -5.23737
lhand -20.1872 26.8611
lfingers 7.12502
lthumb 6.15913 56.7516
rfemur -25.6215 -4.75475 12.4781
rtibia 23.9334
rfoot -3.7102 3.64848
rtoes -31.9585
lfemur 4.65827 -7.35815 -28.8907
ltibia 24.3183
lfoot -5.11562 -21.0806
ltoes 9.94128
2103
root 12.9926 17.8708 -2.89275 -1.03491 179.169 -362.99
lowerback 11.5307 1.15118 -3.62993
upperback 2.07398 1.29127 -0.110682
thorax -4.36421 0.777146 1.72853
lowerneck -13.8065 1.59796 -12.8117
upperneck 42.3466 -2.1555 5.66584
head 18.3631 -4.11801 3.97966
rclavicle -1.23495e-014 2.5842e-015
rhumerus -32.8479 -13.7779 -78.7923
rradius 38.5147
rwrist 2.84318
rhand -16.2018 6.83056
rfingers 7.12502
rthumb 10.0055 -22.9116
lclavicle -1.23495e-014 2.5842e-015
lhumerus -33.2035 4.54763 86.6999
lradius 34.8833
lwrist -4.90872
lhand -20.1121 27.0818
lfingers 7.12502
lthumb 6.2316 56.9701
rfemur -25.6447 -4.8442 12.6516
rtibia 24.4476
rfoot -4.36552 4.42369
rtoes -31.9309
lfemur 4.34812 -6.78756 -28.7031
ltibia 24.2956
lfoot -5.05242 -20.9137
ltoes 10.4656
2104
root 12.9508 17.8916 -2.78394 -1.1238 178.602 -362.645
lowerback 11.5615 1.07527 -3.40568
upperback 2.11823 1.22237 -0.0309651
thorax -4.32842 0.739873 1.69609
lowerneck -13.6882 1.7139 -12.772
upperneck 42.2147 -1.97928 5.6092
head 18.2198 -4.04605 3.97066
rclavicle 9.34288e-015 -6.75868e-015
rhumerus -32.9631 -13.7797 -78.9183
rradius 38.6111
rwrist 3.04911
rhand -15.7995 6.7043
rfingers 7.12502
rthumb 10.3935 -23.0188
lclavicle 9.34288e-015 -6.75868e-015
lhumerus -33.0216 4.22395 86.7195
lradius 35.1947
lwrist -4.68106
lhand -20.3735 26.9789
lfingers 7.12502
lthumb 5.9792 56.8745
rfemur -25.7558 -4.9874 12.9829
rtibia 25.2462
rfoot -4.96483 5.26917
rtoes -31.7119
lfemur 4.03335 -6.2459 -28.4019
ltibia 24.2737
lfoot -4.9343 -20.7716
ltoes 10.8806
2105
root 12.9062 17.9054 -2.67646 -1.25442 178.098 -362.547
lowerback 11.7251 1.00333 -3.3645
upperback 2.11961 1.12637 -0.0613428
thorax -4.41063 0.693885 1.65327
lowerneck -13.5726 1.80531 -12.6938
upperneck 42.0682 -1.84772 5.55148
head 18.0763 -3.98367 3.94594
rclavicle 6.73383e-015 -5.76476e-015
rhumerus -33.1894 -13.5674 -79.1368
rradius 38.7697
rwrist 3.06907
rhand -15.662 6.16765
rfingers 7.12502
rthumb 10.5263 -23.5488
lclavicle 6.73383e-015 -5.76476e-015
lhumerus -32.8 3.77637 86.6766
lradius 35.3994
lwrist -4.38951
lhand -20.3632 27.2508
lfingers 7.12502
lthumb 5.98918 57.1461
rfemur -25.8279 -5.26744 13.0308
rtibia 26.2854
rfoot -5.44832 5.74212
rtoes -32.6509
lfemur 3.76688 -5.90834 -28.444
ltibia 24.2925
lfoot -4.99016 -20.4437
ltoes 11.0204
2106
root 12.8616 17.9174 -2.57483 -1.41198 177.524 -362.627
lowerback 11.9528 0.989379 -3.50503
upperback 2.0331 1.07224 -0.143218
thorax -4.62504 0.671649 1.65102
lowerneck -13.4253 -4.8727 -11.046
upperneck 42.512 1.48901 2.23855
head 18.331 0.959315 3.94096
rclavicle -5.71506e-016 1.09332e-014
rhumerus -33.5723 -13.4166 -79.2852
rradius 38.8254
rwrist 3.40987
rhand -15.5975 5.91421
rfingers 7.12502
rthumb 10.5885 -23.7991
lclavicle -5.71506e-016 1.09332e-014
lhumerus -32.7568 3.22207 86.6419
lradius 35.6571
lwrist -4.00131
lhand -20.2219 27.6757
lfingers 7.12502
lthumb 6.1256 57.5672
rfemur -25.8743 -5.47205 12.8739
rtibia 27.5984
rfoot -5.94708 5.59646
rtoes -33.3779
lfemur 3.52308 -5.72124 -28.7416
ltibia 24.3609
lfoot -4.95187 -19.9079
ltoes 11.4715
2107
root 12.8182 17.9345 -2.47237 -1.61531 176.895 -362.478
lowerback 12.1664 0.964527 -3.42359
upperback 1.97816 1.03746 -0.134197
thorax -4.79794 0.655286 1.61655
lowerneck -13.1107 -4.76782 -11.0624
upperneck 42.447 1.6353 2.17312
head 18.1934 1.0139 3.92733
rclavicle 1.84621e-014 7.95139e-016
rhumerus -33.8921 -13.2608 -79.3939
rradius 38.7551
rwrist 3.62674
rhand -15.4925 5.95818
rfingers 7.12502
rthumb 10.6897 -23.7499
lclavicle 1.84621e-014 7.95139e-016
lhumerus -32.798 2.89276 86.5959
lradius 36.0352
lwrist -3.76845
lhand -20.1101 27.8884
lfingers 7.12502
lthumb 6.23349 57.7767
rfemur -25.8967 -5.47471 12.9997
rtibia 29.2187
rfoot -6.49148 4.99967
rtoes -32.9189
lfemur 3.31234 -5.62864 -28.8051
ltibia 24.454
lfoot -4.72521 -19.2912
ltoes 12.2506
2108
root 12.7722 17.9495 -2.37026 -1.75441 176.259 -362.262
lowerback 12.2383 0.919405 -3.24098
upperback 2.02504 1.00304 -0.128808
thorax -4.78377 0.636048 1.52421
lowerneck -13.0689 -4.64071 -10.9715
upperneck 42.3734 1.79129 2.06508
head 18.1211 1.06625 3.87729
rclavicle 1.07219e-014 -7.45443e-015
rhumerus -33.9805 -13.2173 -79.5951
rradius 38.584
rwrist 3.80375
rhand -15.5627 6.1467
rfingers 7.12502
rthumb 10.622 -23.5648
lclavicle 1.07219e-014 -7.45443e-015
lhumerus -32.6853 2.76979 86.45
lradius 36.4738
lwrist -3.72705
lhand -19.9682 27.8825
lfingers 7.12502
lthumb 6.3705 57.7667
rfemur -26.0044 -5.65964 13.2789
rtibia 31.0368
rfoot -6.89639 4.5834
rtoes -31.9553
lfemur 3.04783 -5.55157 -28.7995
ltibia 24.54
lfoot -4.72955 -18.6612
ltoes 11.4013
2109
root 12.7253 17.9552 -2.27292 -1.87231 175.636 -362.359
lowerback 12.3041 0.902775 -3.33133
upperback 2.02542 0.962702 -0.244313
thorax -4.81694 0.618209 1.45975
lowerneck -13.1263 -4.55112 -10.8996
upperneck 42.4157 1.87374 2.09943
head 18.149 1.10391 3.8963
rclavicle -5.93869e-015 1.50082e-014
rhumerus -34.1646 -13.2274 -79.7953
rradius 38.4589
rwrist 4.02807
rhand -15.5356 6.34173
rfingers 7.12502
rthumb 10.6482 -23.3685
lclavicle -5.93869e-015 1.50082e-014
lhumerus -32.5898 2.59988 86.2428
lradius 36.8412
lwrist -3.682
lhand -19.9719 27.8928
lfingers 7.12502
lthumb 6.36691 57.7771
rfemur -26.1739 -6.05544 13.2275
rtibia 32.9579
rfoot -7.28109 4.47213
rtoes -32.2103
lfemur 2.75741 -5.35892 -29.1123
ltibia 24.6283
lfoot -4.82179 -18.2233
ltoes 10.3425
2110
root 12.6794 17.9685 -2.1773 -1.98879 174.911 -362.394
lowerback 12.3362 0.94264 -3.37724
upperback 2.02449 1.00481 -0.320363
thorax -4.83709 0.639704 1.39853
lowerneck -13.1151 -4.50264 -10.8833
upperneck 42.4166 1.88648 2.14323
head 18.1414 1.10754 3.91276
rclavicle -1.13432e-014 1.98785e-016
rhumerus -34.4608 -13.0765 -79.9205
rradius 38.4974
rwrist 4.01748
rhand -15.449 6.73829
rfingers 7.12502
rthumb 10.7317 -22.9676
lclavicle -1.13432e-014 1.98785e-016
lhumerus -32.4191 2.3325 86.1482
lradius 37.0567
lwrist -3.42285
lhand -19.9492 28.026
lfingers 7.12502
lthumb 6.38886 57.9097
rfemur -26.3312 -6.09424 13.1909
rtibia 34.9546
rfoot -7.62647 4.18588
rtoes -32.0932
lfemur 2.47649 -5.21891 -29.3666
ltibia 24.689
lfoot -5.00628 -17.6999
ltoes 9.22277
2111
root 12.6319 17.9901 -2.0846 -2.06596 174.141 -362.121
lowerback 12.2207 0.93908 -3.0947
upperback 2.15159 1.05091 -0.305145
thorax -4.63778 0.65665 1.2507
lowerneck -13.3439 -4.46114 -10.9499
upperneck 42.3803 1.87182 2.22622
head 18.1778 1.07205 3.95545
rclavicle -8.07563e-015 9.19379e-015
rhumerus -34.5102 -12.8468 -80.1458
rradius 38.509
rwrist 3.96501
rhand -15.7766 6.93237
rfingers 7.12502
rthumb 10.4157 -22.7896
lclavicle -8.07563e-015 9.19379e-015
lhumerus -32.0087 2.27421 86.0297
lradius 37.2117
lwrist -3.10715
lhand -19.414 28.4695
lfingers 7.12502
lthumb 6.90549 58.3368
rfemur -26.4527 -6.01846 13.4886
rtibia 36.9913
rfoot -7.9225 3.91572
rtoes -30.9831
lfemur 2.20275 -5.28255 -29.3213
ltibia 24.718
lfoot -4.98677 -16.9588
ltoes 9.33458
2112
root 12.5854 18.0065 -1.99605 -2.24977 173.522 -361.951
lowerback 12.1582 0.872359 -2.96623
upperback 2.32364 0.998201 -0.262272
thorax -4.41892 0.629533 1.23413
lowerneck -13.4622 -4.36838 -11.08
upperneck 42.2327 1.95706 2.22826
head 18.1115 1.05857 3.97788
rclavicle 1.92821e-014 -1.33683e-014
rhumerus -34.4687 -12.6911 -80.286
rradius 38.4979
rwrist 4.21051
rhand -15.7565 6.57908
rfingers 7.12502
rthumb 10.4351 -23.142
lclavicle 1.92821e-014 -1.33683e-014
lhumerus -31.6254 2.44168 85.8748
lradius 37.4008
lwrist -2.8991
lhand -18.8526 28.8945
lfingers 7.12502
lthumb 7.44744 58.7434
rfemur -26.3602 -6.09571 13.6402
rtibia 39.0301
rfoot -8.32734 3.56889
rtoes -30.8639
lfemur 2.07375 -5.38122 -29.3714
ltibia 24.708
lfoot -4.33061 -16.1429
ltoes 12.1405
2113
root 12.5451 18.0178 -1.90199 -2.43106 172.91 -361.818
lowerback 12.2845 0.854096 -2.95646
upperback 2.35593 0.976766 -0.210119
thorax -4.45435 0.620415 1.28504
lowerneck -13.3628 -4.28909 -11.0064
upperneck 42.1092 2.1034 1.95044
head 18.0043 1.08441 3.84496
rclavicle -1.24862e-015 2.50966e-015
rhumerus -34.6367 -12.5967 -80.3168
rradius 38.408
rwrist 4.23898
rhand -15.7265 6.69162
rfingers 7.12502
rthumb 10.464 -23.028
lclavicle -1.24862e-015 2.50966e-015
lhumerus -31.4651 2.61088 85.714
lradius 37.5847
lwrist -2.90175
lhand -18.9359 28.8969
lfingers 7.12502
lthumb 7.367 58.7486
rfemur -26.2609 -6.00706 13.7493
rtibia 41.1011
rfoot -8.65556 2.96992
rtoes -31.7348
lfemur 1.96421 -5.31121 -29.381
ltibia 24.5976
lfoot -3.90383 -15.5434
ltoes 12.5543
2114
root 12.5046 18.0352 -1.80927 -2.46633 172.178 -361.653
lowerback 12.2828 0.901777 -2.90375
upperback 2.30969 1.04066 -0.187083
thorax -4.50464 0.649663 1.26887
lowerneck -13.3813 -4.29691 -10.9139
upperneck 42.2386 2.12555 1.85105
head 18.0876 1.09001 3.79427
rclavicle -6.10486e-015 2.5345e-015
rhumerus -34.9225 -12.4996 -80.3683
rradius 38.2874
rwrist 3.88285
rhand -16.0955 7.31287
rfingers 7.12502
rthumb 10.108 -22.4243
lclavicle -6.10486e-015 2.5345e-015
lhumerus -31.3963 2.67772 85.5332
lradius 37.7782
lwrist -2.93294
lhand -19.1778 28.8027
lfingers 7.12502
lthumb 7.13356 58.6625
rfemur -26.3438 -5.77206 13.8903
rtibia 43.2098
rfoot -8.78792 2.52575
rtoes -31.3314
lfemur 1.74538 -5.12229 -29.3264
ltibia 24.4405
lfoot -4.39575 -15.166
ltoes 7.70056
2115
root 12.4618 18.0574 -1.7261 -2.56869 171.46 -361.757
lowerback 12.1273 0.954967 -3.05088
upperback 2.33269 1.09355 -0.271698
thorax -4.39785 0.675514 1.25753
lowerneck -13.4837 -4.33819 -11.0328
upperneck 42.471 2.03077 2.12256
head 18.2577 1.05988 3.94455
rclavicle -1.3508e-014 -1.44119e-015
rhumerus -35.1457 -12.4092 -80.4746
rradius 38.2308
rwrist 3.75231
rhand -16.2327 7.47754
rfingers 7.12502
rthumb 9.97571 -22.2661
lclavicle -1.3508e-014 -1.44119e-015
lhumerus -31.2794 2.76257 85.2967
lradius 38.0312
lwrist -2.95306
lhand -18.9705 28.9693
lfingers 7.12502
lthumb 7.33365 58.8222
rfemur -26.3458 -5.62253 13.69
rtibia 45.3241
rfoot -9.27881 2.23988
rtoes -31.759
lfemur 1.55863 -4.89051 -29.5718
ltibia 24.3388
lfoot -4.6821 -14.8393
ltoes 4.38212
